<svg id="Слой_1" xmlns="http://www.w3.org/2000/svg" viewBox="0 0 18.2 14.8">
<style>.st0,.st1{fill:transparent; stroke-width:.5;stroke-miterlimit:10}.st1{fill:#61c4d9}</style>
<g id="доставка">
<path class="st0" d="M1.9 12h8.3c.4 0 .8-.3.8-.8V3c0-.4-.3-.8-.8-.8H1.9c-.5 0-.8.4-.8.8v8.3c0 .4.3.7.8.7z"/>
<path class="st0" d="M11.2 3.8h3.6s.4 0 .9.5c.2.2.4.5.7.9.5.7 1.1 1.4 1.1 1.4s.4.4.4 1.1v3.5s.1.8-1.1.8h-6.3"/>
<circle class="st1" cx="4.7" cy="12.4" r="1.9"/><circle class="st1" cx="14.1" cy="12.4" r="1.9"/>
<circle class="st1" cx="4" cy="4.2" r="3.7"/>
  <path class="st0" d="M2.7 5.5l1.4-1.1V1.9"/>
  <circle cx="4" cy="4.4" r=".5"/>
  <path class="st0" d="M17.7 8.1h-4s-.6-.1-.6-.8V5.8s0-.5.7-.5h2.5"/>
  </g>
</svg>